<?xml version="1.0" encoding="UTF-8" standalone="no"?>
<!-- Generator: Adobe Illustrator 21.0.2, SVG Export Plug-In . SVG Version: 6.00 Build 0)  -->

<svg
   xmlns:dc="http://purl.org/dc/elements/1.1/"
   xmlns:cc="http://creativecommons.org/ns#"
   xmlns:rdf="http://www.w3.org/1999/02/22-rdf-syntax-ns#"
   xmlns:svg="http://www.w3.org/2000/svg"
   xmlns="http://www.w3.org/2000/svg"
   xmlns:sodipodi="http://sodipodi.sourceforge.net/DTD/sodipodi-0.dtd"
   xmlns:inkscape="http://www.inkscape.org/namespaces/inkscape"
   version="1.1"
   id="Layer_1"
   x="0px"
   y="0px"
   viewBox="0 0 652 150"
   xml:space="preserve"
   inkscape:version="0.91 r13725"
   sodipodi:docname="AV-color.svg"
   width="652"
   height="150"><metadata
     id="metadata118"><rdf:RDF><cc:Work
         rdf:about=""><dc:format>image/svg+xml</dc:format><dc:type
           rdf:resource="http://purl.org/dc/dcmitype/StillImage" /><dc:title></dc:title></cc:Work></rdf:RDF></metadata><defs
     id="defs116" /><sodipodi:namedview
     pagecolor="#ffffff"
     bordercolor="#666666"
     borderopacity="1"
     objecttolerance="10"
     gridtolerance="10"
     guidetolerance="10"
     inkscape:pageopacity="0"
     inkscape:pageshadow="2"
     inkscape:window-width="1307"
     inkscape:window-height="744"
     id="namedview114"
     showgrid="false"
     inkscape:zoom="0.8175583"
     inkscape:cx="428.05866"
     inkscape:cy="222.85852"
     inkscape:window-x="59"
     inkscape:window-y="24"
     inkscape:window-maximized="1"
     inkscape:current-layer="Layer_1" /><style
     type="text/css"
     id="style3">
	.st0{fill:#1A1A1A;}
	.st1{fill:url(#SVGID_1_);}
</style><g
     id="g5"
     transform="matrix(1.4999817,0,0,1.4999817,-220.25896,-311.99485)"><g
       id="g7"><g
         id="g9"><g
           id="g11"><path
             class="st0"
             d="m 265.5,281.1 -5.4,0 12.1,-28.4 5.7,0 12.3,28.4 -5.7,0 -3.2,-7.8 -9.4,0 1.8,-4.6 5.7,0 -4.5,-10.7 -9.4,23.1 z"
             id="path13"
             inkscape:connector-curvature="0"
             style="fill:#1a1a1a" /><path
             class="st0"
             d="m 294,281.1 0,-20.9 4.1,0 0.7,3.1 c 2,-2 4.3,-3.1 6.8,-3.1 4.9,0 7.4,2.6 7.4,7.7 l 0,13.2 -5.3,0 0,-13.2 c 0,-2.3 -1.1,-3.5 -3.4,-3.5 -1.7,0 -3.4,0.7 -5,2 l 0,14.6 -5.3,0 z"
             id="path15"
             inkscape:connector-curvature="0"
             style="fill:#1a1a1a" /><path
             class="st0"
             d="m 317.8,274.6 c 0,-4.1 3,-6.2 9.1,-6.2 1.4,0 2.8,0.1 4.3,0.4 l 0,-1.6 c 0,-1.9 -1.3,-2.8 -4,-2.8 -2.3,0 -4.8,0.3 -7.6,1 l 0,-4.2 c 2.8,-0.7 5.3,-1 7.6,-1 6.2,0 9.3,2.3 9.3,6.9 l 0,14 -3.1,0 -1.9,-1.9 c -1.8,1.2 -3.8,1.9 -6,1.9 -5.2,0 -7.7,-2.2 -7.7,-6.5 z m 9,-2.6 c -2.5,0 -3.8,0.9 -3.8,2.6 0,1.9 1.1,2.8 3.2,2.8 1.7,0 3.4,-0.5 4.9,-1.6 l 0,-3.3 c -1.3,-0.4 -2.7,-0.5 -4.3,-0.5 z"
             id="path17"
             inkscape:connector-curvature="0"
             style="fill:#1a1a1a" /><path
             class="st0"
             d="m 347.4,252.7 0,28.4 -5.3,0 0,-28.4 5.3,0 z"
             id="path19"
             inkscape:connector-curvature="0"
             style="fill:#1a1a1a" /><path
             class="st0"
             d="m 350.7,260.2 5.6,0 5.3,15 5.1,-15 5.5,0 -8.7,21.5 c -1.5,3.8 -4,6.5 -7.4,8.1 l -2.5,-3.6 c 2.3,-1 4,-2.7 5.1,-5 l -8,-21 z"
             id="path21"
             inkscape:connector-curvature="0"
             style="fill:#1a1a1a" /><path
             class="st0"
             d="m 375.2,256.9 3.9,0 0.8,3.4 5.2,0 0,4.2 -4.7,0 0,9.6 c 0,1.9 0.8,2.9 2.5,2.9 l 2.1,0 0,4.2 -4.7,0 c -3.5,0 -5.2,-1.9 -5.2,-5.6 l 0,-18.7 z"
             id="path23"
             inkscape:connector-curvature="0"
             style="fill:#1a1a1a" /><path
             class="st0"
             d="m 394.8,252.7 0,4.2 -5.3,0 0,-4.2 5.3,0 z m 0,7.5 0,20.9 -5.3,0 0,-20.9 5.3,0 z"
             id="path25"
             inkscape:connector-curvature="0"
             style="fill:#1a1a1a" /><path
             class="st0"
             d="m 416,280.5 c -1.7,0.4 -3.5,0.6 -5.4,0.6 -7.4,0 -11.1,-3.6 -11.1,-10.8 0,-6.7 3.7,-10 11.1,-10 1.9,0 3.6,0.2 5.4,0.6 l 0,4.2 c -1.7,-0.4 -3.4,-0.6 -5,-0.6 -4.2,0 -6.3,2 -6.3,5.9 0,4.4 2.1,6.7 6.3,6.7 1.6,0 3.2,-0.2 5,-0.6 l 0,4 z"
             id="path27"
             inkscape:connector-curvature="0"
             style="fill:#1a1a1a" /><path
             class="st0"
             d="m 420.3,280.1 0,-4.4 c 2.3,0.9 5,1.4 8,1.4 2.3,0 3.4,-0.7 3.4,-2.2 0,-1.4 -0.8,-2.1 -2.3,-2.1 l -3.8,0 c -4.2,0 -6.4,-2.1 -6.4,-6.3 0,-4.4 3.1,-6.6 9.3,-6.6 2.6,0 5.1,0.4 7.4,1.2 l 0,4.4 c -2.3,-0.9 -4.8,-1.4 -7.6,-1.4 -2.9,0 -4.3,0.7 -4.3,2.2 0,1.4 0.8,2.1 2.5,2.1 l 3.4,0 c 4.6,0 7,2.1 7,6.3 0,4.4 -3,6.6 -8.9,6.6 -2.8,0 -5.4,-0.4 -7.7,-1.2 z"
             id="path29"
             inkscape:connector-curvature="0"
             style="fill:#1a1a1a" /><path
             class="st0"
             d="m 478.8,252.7 -12.5,28.4 -5.7,0 -11.9,-28.4 6.3,0 8.8,21.8 8.8,-21.8 6.2,0 z"
             id="path31"
             inkscape:connector-curvature="0"
             style="fill:#1a1a1a" /><path
             class="st0"
             d="m 487.4,252.7 0,4.2 -5.3,0 0,-4.2 5.3,0 z m 0,7.5 0,20.9 -5.3,0 0,-20.9 5.3,0 z"
             id="path33"
             inkscape:connector-curvature="0"
             style="fill:#1a1a1a" /><path
             class="st0"
             d="m 511.7,279.9 c -3.2,0.8 -6.3,1.3 -9.4,1.3 -6.7,0 -10.1,-3.6 -10.1,-10.9 0,-6.7 3.3,-10 9.9,-10 1.4,0 2.8,0.3 4.3,1 l 0,-8.5 5.3,0 0,27.1 z m -5.3,-14.2 c -1.1,-0.7 -2.5,-1.1 -4.1,-1.1 -3.3,0 -4.9,1.8 -4.9,5.5 0,4.4 1.7,6.5 5.1,6.5 1.4,0 2.7,-0.2 3.9,-0.6 l 0,-10.3 z"
             id="path35"
             inkscape:connector-curvature="0"
             style="fill:#1a1a1a" /><path
             class="st0"
             d="m 517.5,281.1 0,-28.4 5.3,0 0,10.2 c 1.6,-1.8 3.7,-2.7 6.3,-2.7 4.9,0 7.4,2.6 7.4,7.7 l 0,13.2 -5.3,0 0,-13.2 c 0,-2.3 -1.1,-3.5 -3.4,-3.5 -1.7,0 -3.4,0.7 -5,2 l 0,14.6 -5.3,0 z"
             id="path37"
             inkscape:connector-curvature="0"
             style="fill:#1a1a1a" /><path
             class="st0"
             d="m 539.8,260.2 5.6,0 5.3,15 5.1,-15 5.5,0 -8.7,21.5 c -1.5,3.8 -4,6.5 -7.4,8.1 l -2.5,-3.6 c 2.3,-1 4,-2.7 5.1,-5 l -8,-21 z"
             id="path39"
             inkscape:connector-curvature="0"
             style="fill:#1a1a1a" /><path
             class="st0"
             d="m 563.6,274.6 c 0,-4.1 3,-6.2 9.1,-6.2 1.4,0 2.8,0.1 4.3,0.4 l 0,-1.6 c 0,-1.9 -1.3,-2.8 -4,-2.8 -2.3,0 -4.8,0.3 -7.6,1 l 0,-4.2 c 2.8,-0.7 5.3,-1 7.6,-1 6.2,0 9.3,2.3 9.3,6.9 l 0,14 -3.1,0 -1.9,-1.9 c -1.8,1.2 -3.8,1.9 -6,1.9 -5.2,0 -7.7,-2.2 -7.7,-6.5 z m 9,-2.6 c -2.5,0 -3.8,0.9 -3.8,2.6 0,1.9 1.1,2.8 3.2,2.8 1.7,0 3.4,-0.5 4.9,-1.6 l 0,-3.3 c -1.4,-0.4 -2.8,-0.5 -4.3,-0.5 z"
             id="path41"
             inkscape:connector-curvature="0"
             style="fill:#1a1a1a" /></g></g><g
         id="g43"><path
           class="st0"
           d="m 261,292.5 0,11.4 7,0 0,0.8 -7.9,0 0,-12.2 0.9,0 z"
           id="path45"
           inkscape:connector-curvature="0"
           style="fill:#1a1a1a" /><path
           class="st0"
           d="m 274,295.8 c 2.4,0 3.7,1.4 3.7,4.1 0,0.2 0,0.4 0,0.6 l -6.8,0 c 0,2.3 1.2,3.5 3.7,3.5 1,0 1.9,-0.1 2.7,-0.4 l 0,0.8 c -0.8,0.3 -1.7,0.4 -2.7,0.4 -3.1,0 -4.6,-1.5 -4.6,-4.6 0,-3 1.3,-4.4 4,-4.4 z m -3.2,3.8 5.9,0 c 0,-2.1 -1,-3.1 -2.8,-3.1 -1.9,0 -3,1.1 -3.1,3.1 z"
           id="path47"
           inkscape:connector-curvature="0"
           style="fill:#1a1a1a" /><path
           class="st0"
           d="m 279.9,302.2 c 0,-1.8 1.2,-2.7 3.5,-2.7 0.8,0 1.7,0.1 2.7,0.2 l 0,-1.1 c 0,-1.4 -0.9,-2 -2.6,-2 -1,0 -1.9,0.1 -2.9,0.4 l 0,-0.8 c 1,-0.3 1.9,-0.4 2.9,-0.4 2.3,0 3.5,0.9 3.5,2.8 l 0,6.2 -0.5,0 -0.2,-0.9 c -1.1,0.6 -2.2,0.9 -3.2,0.9 -2.1,-0.1 -3.2,-0.9 -3.2,-2.6 z m 3.6,-1.9 c -1.8,0 -2.6,0.6 -2.6,1.9 0,1.2 0.7,1.8 2.2,1.8 1.1,0 2.1,-0.3 3.1,-0.9 l 0,-2.6 c -1,-0.2 -1.9,-0.2 -2.7,-0.2 z"
           id="path49"
           inkscape:connector-curvature="0"
           style="fill:#1a1a1a" /><path
           class="st0"
           d="m 290.3,304.7 0,-8.9 0.6,0 0.1,1.5 c 0.9,-1 1.9,-1.5 3,-1.5 l 0,0.7 c -1.1,0 -2,0.5 -2.8,1.6 l 0,6.7 -0.9,0 z"
           id="path51"
           inkscape:connector-curvature="0"
           style="fill:#1a1a1a" /><path
           class="st0"
           d="m 296.2,304.7 0,-8.9 0.6,0 0.1,1.1 c 1.1,-0.8 2.3,-1.1 3.4,-1.1 2.2,0 3.3,0.9 3.3,2.8 l 0,6.1 -0.9,0 0,-6.1 c 0,-1.3 -0.8,-2 -2.4,-2 -1.1,0 -2.1,0.4 -3.2,1.1 l 0,7 -0.9,0 z"
           id="path53"
           inkscape:connector-curvature="0"
           style="fill:#1a1a1a" /><path
           class="st0"
           d="m 315.2,295.8 c 2.4,0 3.7,1.4 3.7,4.1 0,0.2 0,0.4 0,0.6 l -6.8,0 c 0,2.3 1.2,3.5 3.7,3.5 1,0 1.9,-0.1 2.7,-0.4 l 0,0.8 c -0.8,0.3 -1.7,0.4 -2.7,0.4 -3.1,0 -4.6,-1.5 -4.6,-4.6 0,-3 1.3,-4.4 4,-4.4 z m -3.1,3.8 5.9,0 c 0,-2.1 -1,-3.1 -2.8,-3.1 -2,0 -3,1.1 -3.1,3.1 z"
           id="path55"
           inkscape:connector-curvature="0"
           style="fill:#1a1a1a" /><path
           class="st0"
           d="m 320.4,295.8 1,0 3.3,8.2 3.3,-8.2 1,0 -3.8,8.9 -1,0 -3.8,-8.9 z"
           id="path57"
           inkscape:connector-curvature="0"
           style="fill:#1a1a1a" /><path
           class="st0"
           d="m 334.5,295.8 c 2.4,0 3.7,1.4 3.7,4.1 0,0.2 0,0.4 0,0.6 l -6.8,0 c 0,2.3 1.2,3.5 3.7,3.5 1,0 1.9,-0.1 2.7,-0.4 l 0,0.8 c -0.8,0.3 -1.7,0.4 -2.7,0.4 -3.1,0 -4.6,-1.5 -4.6,-4.6 0,-3 1.4,-4.4 4,-4.4 z m -3.1,3.8 5.9,0 c 0,-2.1 -1,-3.1 -2.8,-3.1 -1.9,0 -3,1.1 -3.1,3.1 z"
           id="path59"
           inkscape:connector-curvature="0"
           style="fill:#1a1a1a" /><path
           class="st0"
           d="m 341,304.7 0,-8.9 0.6,0 0.1,1.5 c 0.9,-1 1.9,-1.5 3,-1.5 l 0,0.7 c -1.1,0 -2,0.5 -2.8,1.6 l 0,6.7 -0.9,0 z"
           id="path61"
           inkscape:connector-curvature="0"
           style="fill:#1a1a1a" /><path
           class="st0"
           d="m 345.9,295.8 1,0 3.3,8.1 3.3,-8.1 1,0 -3.9,9.2 c -0.7,1.6 -1.6,2.6 -3,3 l -0.3,-0.7 c 1,-0.4 1.8,-1.2 2.4,-2.4 l -3.8,-9.1 z"
           id="path63"
           inkscape:connector-curvature="0"
           style="fill:#1a1a1a" /><path
           class="st0"
           d="m 356.6,294.3 0.6,0 0.2,1.4 2.7,0 0,0.8 -2.6,0 0,5.6 c 0,1.2 0.4,1.8 1.3,1.8 l 1.3,0 0,0.8 -1.3,0 c -1.5,0 -2.2,-0.8 -2.2,-2.4 l 0,-8 z"
           id="path65"
           inkscape:connector-curvature="0"
           style="fill:#1a1a1a" /><path
           class="st0"
           d="m 362.5,304.7 0,-12.2 0.9,0 0,4.2 c 1,-0.6 2.1,-1 3.2,-1 2.2,0 3.3,1.1 3.3,3.3 l 0,5.6 -0.9,0 0,-6 c 0,-1.4 -0.8,-2.2 -2.4,-2.2 -1.1,0 -2.1,0.4 -3.2,1.1 l 0,7 -0.9,0 z"
           id="path67"
           inkscape:connector-curvature="0"
           style="fill:#1a1a1a" /><path
           class="st0"
           d="m 374.3,292.5 0,1 -1.1,0 0,-1 1.1,0 z m -0.1,3.3 0,8.9 -0.9,0 0,-8.9 0.9,0 z"
           id="path69"
           inkscape:connector-curvature="0"
           style="fill:#1a1a1a" /><path
           class="st0"
           d="m 377.6,304.7 0,-8.9 0.6,0 0.1,1.1 c 1.1,-0.8 2.3,-1.1 3.3,-1.1 2.2,0 3.3,0.9 3.3,2.8 l 0,6.1 -0.9,0 0,-6.1 c 0,-1.3 -0.8,-2 -2.4,-2 -1.1,0 -2.1,0.4 -3.2,1.1 l 0,7 -0.8,0 z"
           id="path71"
           inkscape:connector-curvature="0"
           style="fill:#1a1a1a" /><path
           class="st0"
           d="m 395.6,304.7 c 0,2.2 -1.3,3.2 -3.9,3.2 -1.1,0 -2.1,-0.1 -2.9,-0.4 l 0,-0.8 c 0.9,0.3 1.8,0.4 2.9,0.4 2,0 3,-0.8 3,-2.5 l 0,-0.4 c -1,0.3 -1.9,0.4 -2.7,0.4 -2.8,0 -4.2,-1.5 -4.2,-4.5 0,-2.9 1.5,-4.4 4.5,-4.4 1.2,0 2.2,0.1 3.2,0.4 l 0,8.6 z m -0.9,-7.9 c -0.8,-0.1 -1.6,-0.2 -2.4,-0.2 -2.4,0 -3.6,1.2 -3.6,3.6 0,2.5 1.1,3.7 3.4,3.7 0.8,0 1.7,-0.2 2.7,-0.5 l 0,-6.6 z"
           id="path73"
           inkscape:connector-curvature="0"
           style="fill:#1a1a1a" /><path
           class="st0"
           d="m 403.1,302.2 c 0,-1.8 1.2,-2.7 3.5,-2.7 0.8,0 1.7,0.1 2.7,0.2 l 0,-1.1 c 0,-1.4 -0.9,-2 -2.6,-2 -1,0 -1.9,0.1 -2.9,0.4 l 0,-0.8 c 1,-0.3 1.9,-0.4 2.9,-0.4 2.3,0 3.5,0.9 3.5,2.8 l 0,6.2 -0.5,0 -0.2,-0.9 c -1.1,0.6 -2.2,0.9 -3.2,0.9 -2.2,-0.1 -3.2,-0.9 -3.2,-2.6 z m 3.5,-1.9 c -1.8,0 -2.6,0.6 -2.6,1.9 0,1.2 0.7,1.8 2.2,1.8 1.1,0 2.1,-0.3 3.1,-0.9 l 0,-2.6 c -1,-0.2 -1.9,-0.2 -2.7,-0.2 z"
           id="path75"
           inkscape:connector-curvature="0"
           style="fill:#1a1a1a" /><path
           class="st0"
           d="m 413.4,292.5 0.9,0 0,3.7 c 1.1,-0.3 2,-0.4 2.8,-0.4 2.7,0 4.1,1.4 4.1,4.3 0,3.1 -1.4,4.6 -4.3,4.6 -1.3,0 -2.4,-0.1 -3.4,-0.4 l 0,-11.8 z m 0.9,11.2 c 0.9,0.2 1.7,0.2 2.5,0.2 2.3,0 3.5,-1.3 3.5,-3.9 0,-2.3 -1.1,-3.4 -3.2,-3.4 -0.8,0 -1.7,0.2 -2.8,0.5 l 0,6.6 z"
           id="path77"
           inkscape:connector-curvature="0"
           style="fill:#1a1a1a" /><path
           class="st0"
           d="m 423.5,300.2 c 0,-3 1.4,-4.5 4.2,-4.5 2.8,0 4.2,1.5 4.2,4.5 0,3 -1.4,4.5 -4.2,4.5 -2.8,0.1 -4.2,-1.4 -4.2,-4.5 z m 4.2,3.8 c 2.2,0 3.3,-1.3 3.3,-3.8 0,-2.5 -1.1,-3.7 -3.3,-3.7 -2.2,0 -3.3,1.3 -3.3,3.7 0,2.5 1.1,3.8 3.3,3.8 z"
           id="path79"
           inkscape:connector-curvature="0"
           style="fill:#1a1a1a" /><path
           class="st0"
           d="m 442,295.8 0,8.9 -0.7,0 -0.1,-1.1 c -1,0.8 -2.2,1.1 -3.4,1.1 -2.1,0 -3.2,-1.1 -3.2,-3.3 l 0,-5.6 0.9,0 0,5.6 c 0,1.7 0.8,2.5 2.3,2.5 1.1,0 2.2,-0.4 3.3,-1.1 l 0,-7 0.9,0 z"
           id="path81"
           inkscape:connector-curvature="0"
           style="fill:#1a1a1a" /><path
           class="st0"
           d="m 445.2,294.3 0.6,0 0.2,1.4 2.7,0 0,0.8 -2.6,0 0,5.6 c 0,1.2 0.4,1.8 1.3,1.8 l 1.3,0 0,0.8 -1.3,0 c -1.5,0 -2.2,-0.8 -2.2,-2.4 l 0,-8 z"
           id="path83"
           inkscape:connector-curvature="0"
           style="fill:#1a1a1a" /><path
           class="st0"
           d="m 455.4,302.2 c 0,-1.8 1.2,-2.7 3.5,-2.7 0.8,0 1.7,0.1 2.7,0.2 l 0,-1.1 c 0,-1.4 -0.9,-2 -2.6,-2 -1,0 -1.9,0.1 -2.9,0.4 l 0,-0.8 c 1,-0.3 1.9,-0.4 2.9,-0.4 2.3,0 3.5,0.9 3.5,2.8 l 0,6.2 -0.5,0 -0.2,-0.9 c -1.1,0.6 -2.2,0.9 -3.2,0.9 -2.2,-0.1 -3.2,-0.9 -3.2,-2.6 z m 3.5,-1.9 c -1.8,0 -2.6,0.6 -2.6,1.9 0,1.2 0.7,1.8 2.2,1.8 1.1,0 2.1,-0.3 3.1,-0.9 l 0,-2.6 c -1,-0.2 -1.9,-0.2 -2.7,-0.2 z"
           id="path85"
           inkscape:connector-curvature="0"
           style="fill:#1a1a1a" /><path
           class="st0"
           d="m 465.7,304.7 0,-8.9 0.6,0 0.1,1.1 c 1.1,-0.8 2.3,-1.1 3.3,-1.1 2.2,0 3.3,0.9 3.3,2.8 l 0,6.1 -0.9,0 0,-6.1 c 0,-1.3 -0.8,-2 -2.4,-2 -1.1,0 -2.1,0.4 -3.2,1.1 l 0,7 -0.8,0 z"
           id="path87"
           inkscape:connector-curvature="0"
           style="fill:#1a1a1a" /><path
           class="st0"
           d="m 475.8,302.2 c 0,-1.8 1.2,-2.7 3.5,-2.7 0.8,0 1.7,0.1 2.7,0.2 l 0,-1.1 c 0,-1.4 -0.9,-2 -2.6,-2 -1,0 -1.9,0.1 -2.9,0.4 l 0,-0.8 c 1,-0.3 1.9,-0.4 2.9,-0.4 2.3,0 3.5,0.9 3.5,2.8 l 0,6.2 -0.5,0 -0.2,-0.9 c -1.1,0.6 -2.2,0.9 -3.2,0.9 -2.2,-0.1 -3.2,-0.9 -3.2,-2.6 z m 3.5,-1.9 c -1.8,0 -2.6,0.6 -2.6,1.9 0,1.2 0.7,1.8 2.2,1.8 1.1,0 2.1,-0.3 3.1,-0.9 l 0,-2.6 c -0.9,-0.2 -1.8,-0.2 -2.7,-0.2 z"
           id="path89"
           inkscape:connector-curvature="0"
           style="fill:#1a1a1a" /><path
           class="st0"
           d="m 487.2,292.5 0,12.2 -0.9,0 0,-12.2 0.9,0 z"
           id="path91"
           inkscape:connector-curvature="0"
           style="fill:#1a1a1a" /><path
           class="st0"
           d="m 489.6,295.8 1,0 3.3,8.1 3.3,-8.1 1,0 -3.9,9.2 c -0.7,1.6 -1.6,2.6 -3,3 l -0.3,-0.7 c 1,-0.4 1.8,-1.2 2.4,-2.4 l -3.8,-9.1 z"
           id="path93"
           inkscape:connector-curvature="0"
           style="fill:#1a1a1a" /><path
           class="st0"
           d="m 500.3,294.3 0.6,0 0.2,1.4 2.7,0 0,0.8 -2.6,0 0,5.6 c 0,1.2 0.4,1.8 1.3,1.8 l 1.3,0 0,0.8 -1.3,0 c -1.5,0 -2.2,-0.8 -2.2,-2.4 l 0,-8 z"
           id="path95"
           inkscape:connector-curvature="0"
           style="fill:#1a1a1a" /><path
           class="st0"
           d="m 507.3,292.5 0,1 -1.1,0 0,-1 1.1,0 z m 0,3.3 0,8.9 -0.9,0 0,-8.9 0.9,0 z"
           id="path97"
           inkscape:connector-curvature="0"
           style="fill:#1a1a1a" /><path
           class="st0"
           d="m 517.1,304.4 c -0.7,0.2 -1.5,0.3 -2.4,0.3 -3,0 -4.5,-1.5 -4.5,-4.6 0,-2.9 1.5,-4.3 4.5,-4.3 0.9,0 1.6,0.1 2.4,0.3 l 0,0.8 c -0.8,-0.2 -1.6,-0.3 -2.3,-0.3 -2.4,0 -3.6,1.2 -3.6,3.5 0,2.6 1.2,3.9 3.6,3.9 0.7,0 1.5,-0.1 2.3,-0.3 l 0,0.7 z"
           id="path99"
           inkscape:connector-curvature="0"
           style="fill:#1a1a1a" /><path
           class="st0"
           d="m 519.6,304.3 0,-0.9 c 1,0.3 2,0.5 2.9,0.5 1.9,0 2.8,-0.6 2.8,-1.8 0,-1 -0.7,-1.4 -2.1,-1.4 l -1.1,0 c -1.9,0 -2.8,-0.8 -2.8,-2.4 0,-1.7 1.2,-2.6 3.7,-2.6 1,0 1.9,0.1 2.9,0.4 l 0,0.9 c -1,-0.3 -2,-0.5 -2.9,-0.5 -1.9,0 -2.8,0.6 -2.8,1.8 0,1 0.6,1.5 1.9,1.5 l 1.1,0 c 2,0 3,0.8 3,2.3 0,1.7 -1.2,2.6 -3.7,2.6 -1,0 -1.9,-0.1 -2.9,-0.4 z"
           id="path101"
           inkscape:connector-curvature="0"
           style="fill:#1a1a1a" /></g></g><g
       id="g103"><linearGradient
         id="SVGID_1_"
         gradientUnits="userSpaceOnUse"
         x1="146.85719"
         y1="258"
         x2="270.2211"
         y2="258"><stop
           offset="0.1684"
           style="stop-color:#EF3F24"
           id="stop106" /><stop
           offset="0.5527"
           style="stop-color:#124677"
           id="stop108" /><stop
           offset="0.9709"
           style="stop-color:#124677"
           id="stop110" /></linearGradient><path
         class="st1"
         d="m 147,305.9 c -0.4,0.7 0,1.6 0.7,2 0.2,0.1 0.4,0.1 0.6,0.1 0.6,0 1.1,-0.3 1.3,-0.9 0,0 20.2,-41.8 21.4,-44 1.3,-2.3 2.7,-3.4 4.6,-0.7 2.1,2.9 20.8,32.4 27.9,43 2.4,3.5 5.4,3.9 8.6,-1.5 12,-20 48,-80.2 48,-80.2 l 2.6,15.8 c 0.3,1.9 1.9,3.2 3.8,3.1 0.2,0 0.3,0 0.5,0 2,-0.3 3.4,-2.2 3.1,-4.3 l -4.4,-27.1 c -0.2,-1 -0.8,-1.9 -1.6,-2.5 -0.9,-0.6 -1.9,-0.8 -3,-0.5 l -27.2,6.7 c -2,0.5 -3.2,2.5 -2.7,4.5 0.5,2 2.5,3.2 4.5,2.7 l 14.8,-3.7 c 0,0 -29.3,61.5 -41.3,80.7 -1.2,1.9 -3.1,2.6 -5.3,-1.3 -1.2,-2.1 -27.7,-43.1 -27.7,-43.1 -1.5,-2.3 -3.5,-3.6 -5.6,0.7 L 147,305.9 Z"
         id="path112"
         inkscape:connector-curvature="0"
         style="fill:url(#SVGID_1_)" /></g></g></svg>